 <svg id="illustration" xmlns="http://www.w3.org/2000/svg" width="161.722" height="201.343" viewBox="0 0 161.722 201.343">
  <path id="Path_36" data-name="Path 36" d="M547.177,669.25a11.746,11.746,0,0,0-7.009-4.853,34.141,34.141,0,0,0-7.809-.459l-32.964.254a5.4,5.4,0,1,0,0,10.8l28.968-.223c2.276-.018,4.554-.059,6.831-.051.511,0,1.02.029,1.531.034.124,0,.213,0,.276,0l.05.015c.266.073.54.124.808.193-.094,0,.174.17.308.226.018.036.058.1.124.2.092.172.363.695.375.678a24.189,24.189,0,0,1,1.008,3.169,17.752,17.752,0,0,1,.856,5.106c.114,2.818,2.4,5.533,5.4,5.4,2.827-.127,5.521-2.376,5.4-5.4C551.121,679.243,550.227,673.521,547.177,669.25Z" transform="translate(-436.291 -490.987)" fill="#e6e6e6"/>
  <path id="Path_37" data-name="Path 37" d="M441.721,530.036c-.619-3.752-1.226-7.506-1.858-11.256-.64-3.8-1.948-7.288-4.909-9.784-.791-.667-1.611-1.29-2.435-1.911-.29-.218-.579-.437-.865-.66l-.043-.033-.12-.1c-1.234-1.044-2.426-2.135-3.562-3.294q-1.513-1.545-2.893-3.221-.345-.419-.681-.845l-.383-.492c-.127-.175-.36-.492-.4-.547q-.393-.555-.771-1.121a52.678,52.678,0,0,1-4.45-8.137q-.185-.422-.361-.849l-.126-.347c-.25-.688-.5-1.375-.728-2.071q-.729-2.217-1.253-4.5-.259-1.127-.467-2.266-.107-.585-.2-1.173c-.01-.065-.071-.488-.107-.727s-.075-.665-.082-.731q-.059-.593-.105-1.186-.1-1.336-.14-2.677-.062-2.383.085-4.765c.056-.892.136-1.782.234-2.671.006-.055.011-.1.015-.137s.013-.085.021-.141c.073-.491.149-.981.235-1.47a53.761,53.761,0,0,1,1.262-5.5q.367-1.285.8-2.549.192-.561.4-1.118c-.009.024.4-1.018.4-1.053,1.618-3.823,4.264-7.308,4.268-11.65,0-2.94-2.485-5.757-5.4-5.621a5.61,5.61,0,0,0-5.4,5.621c0,.066,0,.122,0,.177l-.07.235c-.315.686-.7,1.337-1.048,2.006-.948,1.83-1.758,3.72-2.527,5.638a53.933,53.933,0,0,0-2.878,9.66,61.443,61.443,0,0,0-.327,21.946,56.632,56.632,0,0,0,18.593,33.182c.833.712,1.686,1.4,2.547,2.075.356.279.716.553,1.077.825.171.129.878.686.567.416a3.439,3.439,0,0,1,1.122,1.279l.1.409c.121.474.236.947.332,1.428.835,4.2,1.416,8.473,2.114,12.7.48,2.905,4.057,4.8,6.641,3.926C440.959,535.936,442.235,533.149,441.721,530.036Z" transform="translate(-376.678 -339.59)" fill="#e6e6e6"/>
  <path id="Path_38" data-name="Path 38" d="M478.561,481.852a8.562,8.562,0,0,1-8.584-8.52v-6.158c-6.448.722-28.527.555-34.856-.462v6.375a8.584,8.584,0,1,1-17.168,0V460.571a55.067,55.067,0,0,1,22.7-102.946c1.494-.117,3-.176,4.467-.176,5.18,0,28.552.8,34.417,2.487l13.372-13.268a1.4,1.4,0,0,1,1.535-.306,1.383,1.383,0,0,1,.872,1.3v2.11l2.6-2.579a1.4,1.4,0,0,1,1.534-.306,1.384,1.384,0,0,1,.873,1.3v23.574a54.919,54.919,0,0,1-13.183,90.384v11.192A8.562,8.562,0,0,1,478.561,481.852Zm-7.909-15.444v6.924a7.909,7.909,0,1,0,15.819,0V461.714l.193-.091a54.816,54.816,0,0,0,22.449-19.632,54.1,54.1,0,0,0-9.346-69.833l-.112-.1V348.182a.71.71,0,0,0-.453-.673.725.725,0,0,0-.8.16l-3.755,3.719v-3.728a.71.71,0,0,0-.453-.673.727.727,0,0,0-.8.161L479.728,360.7l-.194-.061c-5.451-1.706-29.191-2.515-34.411-2.515-1.453,0-2.938.059-4.414.174a54.687,54.687,0,0,0-29.773,11.724,54.151,54.151,0,0,0,7.519,90.055l.174.1v12.913a7.909,7.909,0,1,0,15.819,0V465.9l.4.075c5.688,1.07,29.637,1.239,35.424.48Z" transform="translate(-367.13 -280.509)" fill="#3f3d56"/>
  <path id="Path_39" data-name="Path 39" d="M437.733,270.345l-37.366,11.229a4.684,4.684,0,0,0,2.7,8.972l32.7-9.829.685-.206a22.782,22.782,0,0,1,2.8-10.076,2.079,2.079,0,0,0-.675-.175A2.148,2.148,0,0,0,437.733,270.345Z" transform="translate(-372.045 -230.152)" fill="#5596b4"/>
  <path id="Path_40" data-name="Path 40" d="M403.772,294.579a2.366,2.366,0,0,1-2.24-1.62l-2.337-7.051a2.362,2.362,0,0,1,1.5-2.985l30.412-10.079a2.362,2.362,0,0,1,2.985,1.5l2.337,7.051a2.354,2.354,0,0,1-1.415,2.956l-.085.03-30.412,10.078A2.361,2.361,0,0,1,403.772,294.579Z" transform="translate(-373.401 -231.79)" fill="#2f2e41"/>
  <path id="Path_41" data-name="Path 41" d="M535.41,233.42a23.63,23.63,0,0,0-23.61,22.894c-.007.24-.01.483-.01.725a23.62,23.62,0,1,0,23.62-23.62Zm0,46.564a22.969,22.969,0,0,1-22.945-22.945q0-.471.02-.931a22.944,22.944,0,1,1,22.925,23.876Z" transform="translate(-448.083 -205.749)" fill="#3f3d56"/>
  <path id="Path_42" data-name="Path 42" d="M562.606,264.327a19.908,19.908,0,1,1-39.816,0c0-.631.03-1.252.088-1.866a19.908,19.908,0,0,1,39.728,1.866Z" transform="translate(-455.372 -213.036)" fill="#e6e6e6"/>
  <path id="Path_43" data-name="Path 43" d="M574.6,281.6a4.74,4.74,0,0,0-1.846-1.461,17.927,17.927,0,0,0-2.774-.911v-5.419a7.893,7.893,0,0,1,3.944,1.8l1.1-2.345a7.274,7.274,0,0,0-2.146-1.326,10.548,10.548,0,0,0-2.723-.7V268.49h-2.547v2.774a6.977,6.977,0,0,0-2.784.935,5.532,5.532,0,0,0-1.886,1.849,4.645,4.645,0,0,0-.671,2.46,4.2,4.2,0,0,0,.773,2.632,4.9,4.9,0,0,0,1.923,1.525,17.774,17.774,0,0,0,2.821.935v5.193a8.431,8.431,0,0,1-4.694-1.873l-1.1,2.348a8.3,8.3,0,0,0,2.51,1.424,11.526,11.526,0,0,0,3.108.648v2.723h2.547v-2.774a6.593,6.593,0,0,0,3.782-1.734,4.585,4.585,0,0,0,1.41-3.408A4.067,4.067,0,0,0,574.6,281.6Zm-6.816-2.946a4.894,4.894,0,0,1-1.7-.911,1.8,1.8,0,0,1-.6-1.41,2.27,2.27,0,0,1,.614-1.623,3.105,3.105,0,0,1,1.684-.874Zm3.8,7.18a2.887,2.887,0,0,1-1.6.833V282.2a4.467,4.467,0,0,1,1.6.8,1.572,1.572,0,0,1,.55,1.248,2.3,2.3,0,0,1-.55,1.586Z" transform="translate(-481.345 -228.985)" fill="#5596b4"/>
  <path id="Path_44" data-name="Path 44" d="M409.068,382.631a2.37,2.37,0,0,1-2.286-1.76l-1.272-4.815a2.363,2.363,0,0,1,1.679-2.885l40.133-10.605a2.367,2.367,0,0,1,2.885,1.682l1.078,4.079-.2.016A54.043,54.043,0,0,0,422.7,379.1l-.058.028-12.977,3.428A2.349,2.349,0,0,1,409.068,382.631Z" transform="translate(-377.613 -291.266)" fill="#2f2e41"/>
  <path id="Path_45" data-name="Path 45" d="M347.81,437.31a33.1,33.1,0,0,1-13.2-4.991,32.236,32.236,0,0,1-5.457-4.464,16.744,16.744,0,0,1-3.994-5.763,8.536,8.536,0,0,1,.112-6.333,8.21,8.21,0,0,1,4.443-4.429,8.477,8.477,0,0,1,6.43-.009,5.766,5.766,0,0,1,2.35,1.891,3.859,3.859,0,0,1,.611,1.268,2.589,2.589,0,0,1,.031,1.268,3.042,3.042,0,0,1-1.611,1.931,8.12,8.12,0,0,1-2.751.839c-.965.132-2.351.251-3.127-.523a1.575,1.575,0,0,1-.369-.544,1.049,1.049,0,0,1-.058-.492c-.011.073.047-.159.043-.15-.012.034-.065.118.01-.011a1.136,1.136,0,0,1,.079-.122c-.026.033-.082.088.019-.007a.662.662,0,0,1,.309-.19c.047-.014.094-.024.141-.037.119-.033-.119,0,0,0,.047,0,.095,0,.141,0,.119-.005-.118-.033,0,0,.044.011.089.022.132.036.1.03-.067-.07,0,0s-.079-.085.007,0a1.568,1.568,0,0,1,.121.133.8.8,0,0,0,1.118,0,.81.81,0,0,0,0-1.119,2.143,2.143,0,0,0-3.109.089,2.572,2.572,0,0,0,.371,3.6,4.98,4.98,0,0,0,4.1.928,10.061,10.061,0,0,0,3.465-.979,4.858,4.858,0,0,0,2.37-2.56,4.445,4.445,0,0,0-.356-3.634,7.84,7.84,0,0,0-6.44-3.789,10.059,10.059,0,0,0-7.362,2.417,10.175,10.175,0,0,0-3.336,6.774,11.6,11.6,0,0,0,2.348,7.5,28.553,28.553,0,0,0,5.662,5.855,34.576,34.576,0,0,0,14.446,6.813q.942.195,1.895.333a.817.817,0,0,0,.973-.552.8.8,0,0,0-.552-.973Z" transform="translate(-323.001 -322.161)" fill="#3f3d56"/>
  <path id="Path_46" data-name="Path 46" d="M570.809,390.743q-10.346-.146-20.628.525c-2.343.153-4.37.981-4.37,2.373,0,1.164,2.011,2.527,4.37,2.373q10.276-.671,20.628-.525C576.435,395.568,576.432,390.822,570.809,390.743Z" transform="translate(-470.625 -309.97)" fill="#ccc"/>
  <path id="Path_47" data-name="Path 47" d="M553.833,394.554c-.745,0-18.257-.028-18.257-2.447s17.511-2.447,18.257-2.447,18.257.028,18.257,2.447S554.578,394.554,553.833,394.554Zm-17.572-2.447c.479.733,6.916,1.772,17.572,1.772s17.092-1.038,17.572-1.772c-.479-.733-6.916-1.772-17.572-1.772s-17.093,1.038-17.572,1.772Z" transform="translate(-463.844 -309.27)" fill="#3f3d56"/>
  <path id="Path_48" data-name="Path 48" d="M754.208,514.22c3.876-.108,8.7-.242,12.417-2.957a9.536,9.536,0,0,0,3.752-7.121,6.415,6.415,0,0,0-2.181-5.268c-1.941-1.64-4.776-2.025-7.831-1.127l3.165-23.13-2.323-.318-3.721,27.192,1.94-.89c2.249-1.032,5.337-1.557,7.256.065a4.122,4.122,0,0,1,1.352,3.4,7.208,7.208,0,0,1-2.792,5.309c-2.892,2.113-6.738,2.385-11.1,2.507Z" transform="translate(-608.66 -365.349)" fill="#3f3d56"/>
  <rect id="Rectangle_23" data-name="Rectangle 23" width="12.631" height="2.345" transform="translate(126.493 111.262)" fill="#3f3d56"/>
  <path id="Path_49" data-name="Path 49" d="M427,422.595a2.366,2.366,0,0,1-2.33-2l-.771-4.92a2.365,2.365,0,0,1,1.968-2.7l41.007-6.425a2.364,2.364,0,0,1,2.7,1.968l.771,4.92a2.364,2.364,0,0,1-1.968,2.7l-41.008,6.425A2.4,2.4,0,0,1,427,422.595Z" transform="translate(-389.833 -320.444)" fill="#2f2e41"/>
  <circle id="Ellipse_15" data-name="Ellipse 15" cx="17.209" cy="17.209" r="17.209" transform="translate(2.991 10.074)" fill="#5596b4"/>
  <path id="Path_50" data-name="Path 50" d="M407.7,223.477a4.082,4.082,0,0,0,1.473-.9,2.744,2.744,0,0,0,.761-2.188,1.846,1.846,0,0,0-.848-1.405,2.387,2.387,0,0,0-2.276.017l-.1-6.717-.675.01.113,7.9.514-.337a2.044,2.044,0,0,1,2.067-.294,1.186,1.186,0,0,1,.531.908,2.074,2.074,0,0,1-.566,1.631,5.578,5.578,0,0,1-3.05,1.192l.12.664a11.126,11.126,0,0,0,1.932-.473Z" transform="translate(-377.755 -191.743)" fill="#2f2e41"/>
  <rect id="Rectangle_24" data-name="Rectangle 24" width="3.635" height="0.675" transform="matrix(0.989, -0.15, 0.15, 0.989, 32.313, 20.611)" fill="#2f2e41"/>
  <rect id="Rectangle_25" data-name="Rectangle 25" width="3.635" height="0.675" transform="matrix(0.989, -0.15, 0.15, 0.989, 20.97, 22.329)" fill="#2f2e41"/>
  <path id="Path_51" data-name="Path 51" d="M385.724,339.908a3.047,3.047,0,0,1-2.846-1.976l-11.865-31.775a15.7,15.7,0,0,1,9.206-20.179l9.647-3.6a3.023,3.023,0,0,1,2.321.081,2.98,2.98,0,0,1,1.578,1.682l21.979,41.5a3.037,3.037,0,0,1-1.774,3.927l-27.185,10.151A3.027,3.027,0,0,1,385.724,339.908Z" transform="translate(-354.152 -238.058)" fill="#2f2e41"/>
  <path id="Path_52" data-name="Path 52" d="M420.158,283.063l21.807,29.162L427.21,283.37a2.726,2.726,0,0,0-3.492-1.635Z" transform="translate(-387.37 -237.652)" fill="#e6e6e6"/>
  <path id="Path_53" data-name="Path 53" d="M437.427,328.331l-38.937-2.508a4.683,4.683,0,1,1,.6-9.347l38.937,2.508a2.193,2.193,0,0,1,2.048,2.33l-.32,4.97A2.193,2.193,0,0,1,437.427,328.331Z" transform="translate(-370.109 -260.773)" fill="#5596b4"/>
  <path id="Path_54" data-name="Path 54" d="M424.228,326.406q-.077,0-.155,0h0L392.1,324.342a2.362,2.362,0,0,1-2.205-2.509l.547-8.489a2.362,2.362,0,0,1,2.509-2.205l31.973,2.059a2.365,2.365,0,0,1,2.205,2.509l-.547,8.489a2.368,2.368,0,0,1-1.534,2.062A2.336,2.336,0,0,1,424.228,326.406Z" transform="translate(-367.315 -257.24)" fill="#2f2e41"/>
  <path id="Path_55" data-name="Path 55" d="M342.989,167.251c2.264-1.947,5.373-.205,7.969-.51a6.153,6.153,0,0,0,4.946-4.887,7.616,7.616,0,0,0-2.961-7.25,10.966,10.966,0,0,0-8.291-2.078,20.73,20.73,0,0,0-9.116,3.833,41.113,41.113,0,0,0-7.235,6.131,15.818,15.818,0,0,0-4.11,7.582,10.4,10.4,0,0,0,1.437,7.746,8.167,8.167,0,0,0,3.2,2.634c1.328.652,2.746,1.119,4.033,1.856,1.946,1.115,3.838,3.428,3.228,5.834a3.3,3.3,0,0,1-.751,1.414c-.436.483-1.221-.155-.784-.64a2.786,2.786,0,0,0,.328-3,5.49,5.49,0,0,0-2.441-2.684c-1.347-.77-2.835-1.246-4.216-1.947a9.117,9.117,0,0,1-3.344-2.772,11.277,11.277,0,0,1-1.772-8.051,15.95,15.95,0,0,1,3.87-7.99A39.847,39.847,0,0,1,334.281,156a23.522,23.522,0,0,1,9.4-4.353,12.6,12.6,0,0,1,8.854,1.425,9.307,9.307,0,0,1,4.5,7.068,7.5,7.5,0,0,1-3.5,6.729,6.446,6.446,0,0,1-3.85.892,29.4,29.4,0,0,0-4.324-.41,3.017,3.017,0,0,0-1.778.718c-.495.425-1.084-.4-.594-.82Z" transform="translate(-322.986 -151.412)" fill="#2f2e41"/>
</svg>
