<svg xmlns="http://www.w3.org/2000/svg" width="208.12" height="166.56" viewBox="0 0 208.12 166.56">
  <g id="illustration" transform="translate(0)">
    <path id="Path_56" data-name="Path 56" d="M932.89,709.833a85.385,85.385,0,0,1-.8,10.971c-.018.128-.037.255-.055.383L897.655,721c-.1-.127-.2-.255-.3-.385-.321-.43-.622-.872-.9-1.329-1.327-2.2-1.935-4.782-1.326-6.562l.011-.028a3.124,3.124,0,0,1,.609-1.059c1.388-1.563,4.2-1.3,6.742-.041-2.285-2.5-4.1-5.656-4.242-8.473-.135-2.747,1.3-4.71,2.859-6.378.051-.055.1-.109.153-.162.025-.028.051-.054.076-.081,1.216-1.271,2.633-2.524,4.684-2.373,2.25.167,4.745,2.051,6.494,4.247a36.727,36.727,0,0,1,4.089,7.121,28.741,28.741,0,0,0,4.349,7,26.785,26.785,0,0,1-5.394-10.521c-.764-3.589-.092-7.035,2.193-8.725a5.344,5.344,0,0,1,2.341-.945c.1-.016.2-.03.3-.041a9.381,9.381,0,0,1,6.79,2.24,15.631,15.631,0,0,1,4.823,7.489A25.523,25.523,0,0,1,932.89,709.833Z" transform="translate(-724.774 -554.676)" fill="#f2f2f2"/>
    <path id="Path_57" data-name="Path 57" d="M911.865,792.012l-.657,0q-.313-.2-.629-.387c-.13-.082-.262-.162-.394-.242q-3.27-2-6.582-3.832t-6.65-3.5a.276.276,0,0,1-.158-.315.078.078,0,0,1,.011-.023c.031-.058.1-.083.2-.033.273.137.548.274.821.414q3.351,1.7,6.673,3.56t6.6,3.892l.138.085Z" transform="translate(-726.24 -625.623)" fill="#fff"/>
    <path id="Path_58" data-name="Path 58" d="M940.388,736.21l-.406,0-.273-.385-6.461-9.061q-5.289-7.417-10.574-14.835a.263.263,0,0,1-.046-.09c-.03-.109.05-.174.153-.162a.309.309,0,0,1,.215.137l5.929,8.316,10.521,14.759.669.938C940.207,735.953,940.3,736.081,940.388,736.21Z" transform="translate(-746.287 -569.772)" fill="#fff"/>
    <path id="Path_59" data-name="Path 59" d="M1015.222,718.662c-.021.685-.066,1.359-.125,2.027l-.034.383-.427,0c.013-.128.026-.255.038-.383.09-.965.154-1.941.163-2.943a41.059,41.059,0,0,0-.808-8.275,51.524,51.524,0,0,0-2.5-8.6,59.043,59.043,0,0,0-4.1-8.506.227.227,0,0,1-.038-.151c.018-.121.179-.158.3-.041a.358.358,0,0,1,.061.077q.3.507.579,1.018a59,59,0,0,1,3.92,8.536,51.276,51.276,0,0,1,2.334,8.61A40.507,40.507,0,0,1,1015.222,718.662Z" transform="translate(-812.066 -554.586)" fill="#fff"/>
    <path id="Path_60" data-name="Path 60" d="M695.671,762.716a44.6,44.6,0,0,1-.421,5.733c-.009.067-.019.133-.029.2l-17.964-.1c-.053-.066-.1-.133-.155-.2-.168-.225-.325-.456-.469-.695a4.449,4.449,0,0,1-.693-3.429l.006-.014a1.631,1.631,0,0,1,.319-.553c.725-.817,2.192-.681,3.523-.021a7.771,7.771,0,0,1-2.217-4.428,4.474,4.474,0,0,1,1.494-3.333l.08-.085.04-.042a3.077,3.077,0,0,1,2.448-1.24,5.487,5.487,0,0,1,3.393,2.219,19.188,19.188,0,0,1,2.137,3.721,15.018,15.018,0,0,0,2.273,3.66,14,14,0,0,1-2.819-5.5c-.4-1.875-.048-3.676,1.146-4.56a2.793,2.793,0,0,1,1.223-.494c.052-.009.1-.015.157-.022a4.9,4.9,0,0,1,3.548,1.17,8.168,8.168,0,0,1,2.521,3.914A13.353,13.353,0,0,1,695.671,762.716Z" transform="translate(-554.772 -602.238)" fill="#f2f2f2"/>
    <path id="Path_61" data-name="Path 61" d="M684.684,805.662l-.344,0q-.164-.1-.329-.2c-.068-.043-.137-.084-.206-.127q-1.709-1.044-3.44-2t-3.475-1.831a.144.144,0,0,1-.083-.165.042.042,0,0,1,.006-.012c.016-.03.052-.043.105-.017.143.072.286.143.429.216q1.751.886,3.487,1.86t3.45,2.034l.072.045Z" transform="translate(-555.539 -639.313)" fill="#fff"/>
    <path id="Path_62" data-name="Path 62" d="M699.588,776.5h-.212l-.143-.2-3.376-4.735-5.526-7.752a.139.139,0,0,1-.024-.047c-.016-.057.026-.091.08-.085a.161.161,0,0,1,.112.071l3.1,4.346,5.5,7.713.35.49Z" transform="translate(-566.013 -610.127)" fill="#fff"/>
    <path id="Path_63" data-name="Path 63" d="M738.7,767.331c-.011.358-.035.71-.065,1.059l-.018.2h-.223c.007-.067.014-.134.02-.2.047-.5.081-1.014.085-1.538a21.458,21.458,0,0,0-.422-4.325,26.921,26.921,0,0,0-1.308-4.493,30.86,30.86,0,0,0-2.14-4.445.118.118,0,0,1-.02-.079c.009-.064.094-.082.157-.022a.187.187,0,0,1,.032.04q.154.265.3.532a30.836,30.836,0,0,1,2.048,4.461,26.8,26.8,0,0,1,1.219,4.5A21.17,21.17,0,0,1,738.7,767.331Z" transform="translate(-600.389 -602.191)" fill="#fff"/>
    <path id="Path_64" data-name="Path 64" d="M172.671,318.176H139a3.515,3.515,0,0,1-3.511-3.511V274.226A3.515,3.515,0,0,1,139,270.715h33.666a3.515,3.515,0,0,1,3.511,3.511v40.439A3.515,3.515,0,0,1,172.671,318.176ZM139,271.162a3.066,3.066,0,0,0-3.063,3.063v40.439A3.066,3.066,0,0,0,139,317.728h33.666a3.066,3.066,0,0,0,3.063-3.063V274.226a3.066,3.066,0,0,0-3.063-3.063Z" transform="translate(-135.493 -227.598)" fill="#3f3d56"/>
    <path id="Path_65" data-name="Path 65" d="M197.217,264.076h-15.74a2.8,2.8,0,0,1-2.8-2.8v-.6a2.8,2.8,0,0,1,2.8-2.8h15.74a2.8,2.8,0,0,1,2.8,2.8v.6A2.8,2.8,0,0,1,197.217,264.076Z" transform="translate(-169.003 -217.636)" fill="#ccc"/>
    <path id="Path_66" data-name="Path 66" d="M182.748,372.718H151.871a1.594,1.594,0,1,1,0-3.187h30.877a1.594,1.594,0,0,1,0,3.187Z" transform="translate(-146.965 -304.277)" fill="#5596b4"/>
    <path id="Path_67" data-name="Path 67" d="M182.748,402.952H151.871a1.594,1.594,0,1,1,0-3.187h30.877a1.594,1.594,0,0,1,0,3.187Z" transform="translate(-146.965 -327.738)" fill="#5596b4"/>
    <path id="Path_68" data-name="Path 68" d="M203.117,342.484H188.774a1.594,1.594,0,1,1,0-3.187h14.343a1.594,1.594,0,1,1,0,3.187Z" transform="translate(-175.601 -280.816)" fill="#5596b4"/>
    <path id="Path_69" data-name="Path 69" d="M491.906,138.55H458.24a3.515,3.515,0,0,1-3.511-3.511V94.6a3.515,3.515,0,0,1,3.511-3.511h33.666a3.515,3.515,0,0,1,3.511,3.511v40.439A3.515,3.515,0,0,1,491.906,138.55ZM458.24,91.537a3.066,3.066,0,0,0-3.063,3.063v40.439a3.066,3.066,0,0,0,3.063,3.063h33.666a3.066,3.066,0,0,0,3.063-3.063V94.6a3.066,3.066,0,0,0-3.063-3.063Z" transform="translate(-383.213 -88.212)" fill="#3f3d56"/>
    <path id="Path_70" data-name="Path 70" d="M516.452,84.45h-15.74a2.8,2.8,0,0,1-2.8-2.8v-.6a2.8,2.8,0,0,1,2.8-2.8h15.74a2.8,2.8,0,0,1,2.8,2.8v.6A2.8,2.8,0,0,1,516.452,84.45Z" transform="translate(-416.722 -78.25)" fill="#ccc"/>
    <path id="Path_71" data-name="Path 71" d="M501.983,193.092H471.106a1.594,1.594,0,0,1,0-3.187h30.877a1.594,1.594,0,0,1,0,3.187Z" transform="translate(-394.685 -164.891)" fill="#5596b4"/>
    <path id="Path_72" data-name="Path 72" d="M501.983,223.326H471.106a1.594,1.594,0,0,1,0-3.187h30.877a1.594,1.594,0,0,1,0,3.187Z" transform="translate(-394.685 -188.352)" fill="#5596b4"/>
    <path id="Path_73" data-name="Path 73" d="M522.352,162.858H508.009a1.594,1.594,0,0,1,0-3.187h14.343a1.594,1.594,0,0,1,0,3.187Z" transform="translate(-423.32 -141.43)" fill="#5596b4"/>
    <path id="Path_74" data-name="Path 74" d="M739.879,461.261l-29.561,16.11a3.515,3.515,0,0,1-4.763-1.4L686.2,440.46a3.515,3.515,0,0,1,1.4-4.763l29.561-16.11a3.515,3.515,0,0,1,4.763,1.4L741.281,456.5a3.515,3.515,0,0,1-1.4,4.763ZM687.82,436.09a3.066,3.066,0,0,0-1.224,4.155l19.351,35.509a3.066,3.066,0,0,0,4.155,1.224l29.561-16.11a3.066,3.066,0,0,0,1.224-4.155L721.536,421.2a3.066,3.066,0,0,0-4.155-1.224Z" transform="translate(-562.5 -342.788)" fill="#3f3d56"/>
    <path id="Path_75" data-name="Path 75" d="M734.664,433.2l-13.82,7.532a2.8,2.8,0,0,1-3.8-1.119l-.287-.527a2.8,2.8,0,0,1,1.119-3.8l13.82-7.532a2.8,2.8,0,0,1,3.8,1.119l.287.527A2.8,2.8,0,0,1,734.664,433.2Z" transform="translate(-586.278 -349.197)" fill="#ccc"/>
    <path id="Path_76" data-name="Path 76" d="M772.455,512.937l-27.112,14.776a1.594,1.594,0,1,1-1.525-2.8l27.112-14.776a1.594,1.594,0,1,1,1.525,2.8Z" transform="translate(-606.894 -413.235)" fill="#ccc"/>
    <path id="Path_77" data-name="Path 77" d="M786.923,539.485,759.81,554.261a1.594,1.594,0,1,1-1.525-2.8L785.4,536.686a1.594,1.594,0,0,1,1.525,2.8Z" transform="translate(-618.121 -433.835)" fill="#ccc"/>
    <path id="Path_78" data-name="Path 78" d="M775.872,504.049l-12.594,6.864a1.594,1.594,0,0,1-1.525-2.8l12.594-6.864a1.594,1.594,0,1,1,1.525,2.8Z" transform="translate(-620.812 -406.338)" fill="#ccc"/>
    <rect id="Rectangle_26" data-name="Rectangle 26" width="18.208" height="0.448" transform="matrix(0.865, -0.502, 0.502, 0.865, 46.802, 45.764)" fill="#3f3d56"/>
    <path id="Path_79" data-name="Path 79" d="M274.423,161.007l2.224-3.875-4.468.011Z" transform="translate(-211.205 -121.931)" fill="#3f3d56"/>
    <path id="Path_80" data-name="Path 80" d="M412.321,400.955a.222.222,0,0,1-.1-.025L351.7,369.842a.224.224,0,1,1,.2-.4l60.519,31.088a.224.224,0,0,1-.1.423Z" transform="translate(-303.17 -304.191)" fill="#3f3d56"/>
    <path id="Path_81" data-name="Path 81" d="M480.081,424.712l4.462-.219-2.421-3.755Z" transform="translate(-372.532 -326.483)" fill="#3f3d56"/>
    <path id="Path_82" data-name="Path 82" d="M892.253,551.557a2.407,2.407,0,0,1-.861-3.589l-1.8-17.595h3.889l1.43,17.18a2.42,2.42,0,0,1-2.659,4Z" transform="translate(-720.658 -429.088)" fill="#a0616a"/>
    <circle id="Ellipse_16" data-name="Ellipse 16" cx="5.502" cy="5.502" r="5.502" transform="translate(162.522 80.571)" fill="#a0616a"/>
    <path id="Path_83" data-name="Path 83" d="M848.6,512.447l-8.212-1.793a1.01,1.01,0,0,1-.792-.933,32.979,32.979,0,0,1,1.248-11,6.664,6.664,0,0,1,8.564-4.245h0a6.667,6.667,0,0,1,3.786,9.205,55.638,55.638,0,0,0-3.409,8.049,1.006,1.006,0,0,1-1.186.716Z" transform="translate(-681.829 -400.938)" fill="#5596b4"/>
    <path id="Path_84" data-name="Path 84" d="M695.874,694.4h-2.746L691.821,683.8h4.053Z" transform="translate(-536.838 -530.616)" fill="#a0616a"/>
    <path id="Path_85" data-name="Path 85" d="M677.344,727.588h5.3v3.335h-8.632a3.335,3.335,0,0,1,3.335-3.335Z" transform="translate(-523.016 -564.592)" fill="#2f2e41"/>
    <path id="Path_86" data-name="Path 86" d="M802.522,683.047l-2.407,1.323-6.249-8.653,3.552-1.953Z" transform="translate(-616.023 -522.826)" fill="#a0616a"/>
    <path id="Path_87" data-name="Path 87" d="M3.335,0h5.3V3.335H0A3.335,3.335,0,0,1,3.335,0Z" transform="translate(179.073 163.408) rotate(-28.801)" fill="#2f2e41"/>
    <path id="Path_88" data-name="Path 88" d="M824.4,610.4l-4.228-.326a1,1,0,0,1-.926-.907c-.6-6.285-3.246-38.135,3.9-47.941l.02-.027.032-.012c.064-.023,6.441-2.3,10.1,1.87a1.008,1.008,0,0,1,.194.981l-.14.419a.78.78,0,0,0,.111.711c1.015,1.373,4.433,6.659,5.776,17.054a.774.774,0,0,0,.051.193l9.916,24.36a1.008,1.008,0,0,1-.575,1.322l-3.12,1.189a1.014,1.014,0,0,1-1.242-.456l-14.315-25.971a.56.56,0,0,0-1.046.2l-3.435,26.468a1.008,1.008,0,0,1-1,.878Z" transform="translate(-665.312 -452.501)" fill="#2f2e41"/>
    <path id="Path_89" data-name="Path 89" d="M773.968,484.712a2.37,2.37,0,0,1,.054.367l9.623,5.552,2.339-1.347,2.494,3.265-3.909,2.786a1.792,1.792,0,0,1-2.15-.052l-9.923-7.829a2.352,2.352,0,1,1,1.473-2.742Z" transform="translate(-627.334 -392.248)" fill="#a0616a"/>
    <path id="Path_90" data-name="Path 90" d="M833.76,502a1.007,1.007,0,0,1,.5-.678l4.416-2.469a2.8,2.8,0,1,1,3.434,4.423l-3.521,3.656a1.008,1.008,0,0,1-1.524-.083l-3.11-4.031A1.007,1.007,0,0,1,833.76,502Z" transform="translate(-677.317 -404.176)" fill="#5596b4"/>
    <path id="Path_91" data-name="Path 91" d="M882.853,517.354a1.007,1.007,0,0,1-.373-.752l-.159-5.057a2.8,2.8,0,0,1,5.507-1.011l1.624,4.809a1.008,1.008,0,0,1-.776,1.315l-5.01.9A1.007,1.007,0,0,1,882.853,517.354Z" transform="translate(-714.979 -411.912)" fill="#5596b4"/>
    <path id="Path_92" data-name="Path 92" d="M861.754,433.3c-1.414.968-3.271,1.963-4.715.932a2.628,2.628,0,0,1-.863-3.03c.692-1.978,2.592-2.848,4.409-3.516,2.362-.868,4.934-1.558,7.373-.937s4.594,2.982,4.153,5.46c-.354,1.992-2.233,3.65-1.967,5.656s2.539,3.082,4.544,3.442,4.248.477,5.688,1.917c1.838,1.837,1.379,5.12-.35,7.059s-4.339,2.818-6.867,3.416c-3.35.792-6.974,1.208-10.155-.106s-5.658-4.851-4.736-8.168a11.4,11.4,0,0,1,2.193-3.738,10.415,10.415,0,0,0,2.122-3.772,3.922,3.922,0,0,0-.708-3.431.994.994,0,0,1-.133-1.162Z" transform="translate(-694.6 -348.495)" fill="#2f2e41"/>
    <path id="Path_93" data-name="Path 93" d="M765.376,820.2H680.024a.224.224,0,1,1,0-.448h85.352a.224.224,0,1,1,0,.448Z" transform="translate(-557.863 -653.638)" fill="#3f3d56"/>
  </g>
</svg>
