<svg xmlns="http://www.w3.org/2000/svg" width="221.972" height="174" viewBox="0 0 221.972 174">
  <g id="illustration" transform="translate(0)">
    <path id="Path_94" data-name="Path 94" d="M180.543,249.137l-26.305,21.815a11.913,11.913,0,1,1-18.32,15.193L112.334,305.7l37.8,45.586,68.209-56.567Z" transform="translate(-108.313 -206.116)" fill="#f2f2f2"/>
    <path id="Path_95" data-name="Path 95" d="M851.335,332.371c0,26.943-16.018,36.351-35.776,36.351s-35.776-9.408-35.776-36.351,35.776-61.22,35.776-61.22S851.335,305.427,851.335,332.371Z" transform="translate(-629.364 -223.302)" fill="#f2f2f2"/>
    <path id="Path_96" data-name="Path 96" d="M791.773,311.6l.366-22.549,15.249-27.9L792.2,285.514l.165-10.139,10.509-20.183-10.466,17.5h0l.3-18.236,11.254-16.068-11.207,13.2.185-33.438-1.163,44.266.1-1.826-11.442-17.513L791.682,264.1l-1.066,20.366-.032-.541-13.19-18.43,13.15,20.34-.133,2.547-.024.038.011.209-2.7,51.67h3.614l.433-26.689,13.118-20.29Z" transform="translate(-606.881 -170.302)" fill="#3f3d56"/>
    <ellipse id="Ellipse_17" data-name="Ellipse 17" cx="50" cy="3.5" rx="50" ry="3.5" transform="translate(105 167)" fill="#3f3d56"/>
    <rect id="Rectangle_27" data-name="Rectangle 27" width="7" height="171" transform="translate(152)" fill="#3f3d56"/>
    <path id="Path_97" data-name="Path 97" d="M961.89,762.257c0,4.928-2.93,6.649-6.544,6.649l-.251,0c-.167,0-.333-.012-.5-.023-3.262-.231-5.8-2.04-5.8-6.623,0-4.743,6.061-10.728,6.517-11.171h0l.026-.026S961.89,757.329,961.89,762.257Z" transform="translate(-761.31 -597.947)" fill="#5596b4"/>
    <path id="Path_98" data-name="Path 98" d="M968.191,768.152l2.393-3.344-2.4,3.711-.006.384c-.167,0-.333-.012-.5-.023l.258-4.931,0-.038,0-.007.024-.466-2.405-3.721,2.413,3.371.006.1.195-3.725-2.059-3.845,2.084,3.191.2-7.724v0l-.034,6.09,2.05-2.414-2.058,2.939-.054,3.336,1.914-3.2-1.922,3.692-.03,1.854,2.779-4.455-2.789,5.1Z" transform="translate(-774.393 -597.947)" fill="#3f3d56"/>
    <path id="Path_99" data-name="Path 99" d="M736.886,781.589l-1.4-1.04s-.927,5.176.107,5.951,4.911,2.068,4.911,3.619,8.788,3.619,9.047,1.292a5.126,5.126,0,0,0-.775-3.619s-4.136-4.136-4.653-4.911-1.809-2.326-1.809-2.326Z" transform="translate(-594.485 -620.969)" fill="#2f2e41"/>
    <path id="Path_100" data-name="Path 100" d="M756.715,481.733s-.039.227-.106.644c-.062.37-.147.892-.251,1.535-1.086,6.625-4.252,26.128-4.037,26.771.258.775,2.068,3.619,0,4.394a1.6,1.6,0,0,0-.644.7,15.015,15.015,0,0,0-1.093,2.58,113.355,113.355,0,0,0-3.314,13.268c-.333,1.742-.561,3.143-.628,3.877a2.108,2.108,0,0,0-.008.512c.259,1.034-1.551,4.653-2.326,5.687s-2.068,2.068-1.809,3.1-6.462,3.877-7.238,2.068a33,33,0,0,1-1.034-3.36c-.258-.517-.517-4.136.775-4.653s.517-9.564,1.809-11.373a24.838,24.838,0,0,0,1.781-5.095c.271-.962.545-1.985.814-3.011,1.091-4.206,2.058-8.437,2.058-8.437l-.259-30.242,14.217-1.809.364.8.726,1.595Z" transform="translate(-593.635 -385.475)" fill="#2f2e41"/>
    <path id="Path_101" data-name="Path 101" d="M830.919,714.847s2.068-2.068,3.1,0,2.068,10.081,3.877,11.89,4.136,10.856,1.551,11.373-5.428-.775-5.687-2.326-5.687-9.564-5.687-10.339,3.619-3.619,3.619-3.619Z" transform="translate(-667.064 -568.96)" fill="#2f2e41"/>
    <path id="Path_102" data-name="Path 102" d="M696.088,424.511s3.36,30.243,4.136,33.086,4.911,13.7,6.2,15.509,9.564,16.543,10.6,17.318,3.1,2.843,3.1,2.843,3.877,3.877,4.394,4.653,4.911-1.551,5.17-3.1a15.936,15.936,0,0,0-.517-5.17c-.258-1.034.517-2.585-.258-3.36s-4.653-4.653-4.653-6.462-6.721-12.407-9.305-14.734-2.068-6.2-2.068-6.2V443.122l14.217-4.394s-.775-12.407-2.585-12.407S698.931,422.185,696.088,424.511Z" transform="translate(-564.026 -342.47)" fill="#2f2e41"/>
    <circle id="Ellipse_18" data-name="Ellipse 18" cx="8.53" cy="8.53" r="8.53" transform="translate(144.469 21.815)" fill="#9f616a"/>
    <path id="Path_103" data-name="Path 103" d="M769.494,206.322s-1.034,3.877-2.326,4.911,3.36,5.428,3.36,5.428l8.788.517,1.551-4.911s-2.843-5.687-2.068-9.305S769.494,206.322,769.494,206.322Z" transform="translate(-619.339 -169.256)" fill="#9f616a"/>
    <path id="Path_104" data-name="Path 104" d="M713.176,242.02s2.326.258,2.843,1.034,4.136,3.1,6.979,2.585,4.653-1.292,5.17-1.034,1.551,5.687,1.551,5.687l-2.843,8.271.517,22.747.776,6.2s1.551-2.068-4.653-.775-14.217-1.034-16.8-1.292-6.979-1.034-7.238-2.585.775-7.238.775-7.238l4.136-17.318L706.973,249Z" transform="translate(-566.639 -200.56)" fill="#3f3d56"/>
    <path id="Path_105" data-name="Path 105" d="M697.4,234.726s-2.187-1.16-2.962-.126-10.6,2.585-10.6,3.36-2.068,21.713-1.551,23.522-1.034,3.877-1.034,3.877l-1.809,7.754s-4.911,14.734-2.843,15.25a13.458,13.458,0,0,0,4.653,0c.775,0,.517-9.822,2.585-12.407s4.911-9.047,5.428-10.339,6.979-19.128,6.721-21.2S697.4,234.726,697.4,234.726Z" transform="translate(-548.418 -194.433)" fill="#d0cde1"/>
    <path id="Path_106" data-name="Path 106" d="M802.5,242.02s2.068,0,2.326.517a28.3,28.3,0,0,0,3.877,4.653c1.034.775,4.653,4.136,4.653,4.911s-7.5,6.462-7.5,6.462-3.1,15.25-1.551,20.42,3.877,17.577,2.843,18.352-3.36,1.034-3.36,0-1.551-12.149-2.843-14.475-5.17-17.06-3.619-21.2S802.5,242.02,802.5,242.02Z" transform="translate(-642.782 -200.56)" fill="#d0cde1"/>
    <path id="Path_107" data-name="Path 107" d="M666.605,358.687s-.258,8.013,2.585,12.149a49.123,49.123,0,0,1,4.653,8.788s4.653-1.292,5.428-2.843,5.687-.258,5.687-.775-5.945-3.1-6.462-3.619-2.326-.517-3.36-1.551a6.841,6.841,0,0,1-1.292-3.36l-1.034-6.721Z" transform="translate(-541.006 -291.638)" fill="#9f616a"/>
    <path id="Path_108" data-name="Path 108" d="M753.587,138.976a4.916,4.916,0,0,1-1.913-.438,2.561,2.561,0,0,1-.655-3.793,4.9,4.9,0,0,1,.909-.731l1.965-1.337a9.611,9.611,0,0,1,2.772-1.471,8.653,8.653,0,0,1,2.834-.167,19.147,19.147,0,0,1,5.428.987,9.085,9.085,0,0,1,4.4,3.218c1.664,2.407,1.686,5.653.77,8.432a28.6,28.6,0,0,1-4.372,7.569l-.89-4.342a1.6,1.6,0,0,0-.5-1.039c-.8-.569-1.777.6-2.758.592a1.652,1.652,0,0,1-1.4-1.107,6.308,6.308,0,0,1-.31-1.857c-.117-1.33-.582-3.181-1.842-3.914C756.848,138.894,754.906,139.1,753.587,138.976Z" transform="translate(-606.463 -113.891)" fill="#2f2e41"/>
    <path id="Path_109" data-name="Path 109" d="M766.94,492.521s.873,25.252,1.39,26.027,0-26.107,0-26.107Z" transform="translate(-619.338 -396.055)" opacity="0.1"/>
    <path id="Path_110" data-name="Path 110" d="M671.561,251.447h-2.068s-8.788,11.89-7.754,12.666,0,2.843,0,2.843l-2.068,3.877s-2.585,2.326-1.809,2.843a9.446,9.446,0,0,1,1.809,2.585s5.17-.775,6.721,2.326l3.352-4.232Z" transform="translate(-534.071 -207.92)" fill="#d0cde1"/>
    <path id="Path_111" data-name="Path 111" d="M714.017,302.463a22.768,22.768,0,0,1-12.149-3.877l-6.462-2.843s-5.687-8.788-6.2-7.238.775,4.653.775,4.653-7.8,3.609-8,4.086,4.383-.726,4.383-.726-.775,4.911,3.619,5.17,5.687-.775,5.687-.775,18.611,15.509,21.713,10.6S714.017,302.463,714.017,302.463Z" transform="translate(-553.005 -236.706)" fill="#9f616a"/>
    <path id="Path_112" data-name="Path 112" d="M830.078,283.266l2.843,1.034v7.754l1.034,1.551s-.258,3.1-1.034,3.877-2.326.517-1.809,2.326a9.8,9.8,0,0,1,.258,3.619s-4.653,5.945-4.911,5.17-3.877-10.339-4.394-10.339,5.17-14.992,5.17-14.992Z" transform="translate(-662.346 -232.759)" fill="#d0cde1"/>
    <path id="Path_113" data-name="Path 113" d="M697.66,445.8s-2.673-2.585-1.336-2.714,5.989-2.714,6.765-1.422S697.66,445.8,697.66,445.8Z" transform="translate(-563.918 -356.132)" fill="#2f2e41"/>
    <path id="Path_114" data-name="Path 114" d="M186.938,538.672a50.009,50.009,0,1,0-85.857,0Z" transform="translate(-94 -373.071)" fill="#3f3d56"/>
    <path id="Path_170" data-name="Path 170" d="M5,0a4.77,4.77,0,0,1,5,4.5A4.77,4.77,0,0,1,5,9,4.77,4.77,0,0,1,0,4.5,4.77,4.77,0,0,1,5,0Z" transform="translate(45 132)" fill="#98c0d2"/>
    <circle id="Ellipse_20" data-name="Ellipse 20" cx="2.5" cy="2.5" r="2.5" transform="translate(9 142)" fill="#98c0d2"/>
    <circle id="Ellipse_21" data-name="Ellipse 21" cx="2.413" cy="2.413" r="2.413" transform="translate(10.628 121.235)" fill="#98c0d2"/>
    <circle id="Ellipse_22" data-name="Ellipse 22" cx="2.413" cy="2.413" r="2.413" transform="translate(22.604 104.051)" fill="#98c0d2"/>
    <circle id="Ellipse_23" data-name="Ellipse 23" cx="2.413" cy="2.413" r="2.413" transform="translate(41.72 95.491)" fill="#98c0d2"/>
    <circle id="Ellipse_24" data-name="Ellipse 24" cx="2.413" cy="2.413" r="2.413" transform="translate(62.514 97.998)" fill="#98c0d2"/>
    <circle id="Ellipse_25" data-name="Ellipse 25" cx="2.413" cy="2.413" r="2.413" transform="translate(79.048 110.858)" fill="#98c0d2"/>
    <circle id="Ellipse_26" data-name="Ellipse 26" cx="2.413" cy="2.413" r="2.413" transform="translate(86.596 130.395)" fill="#98c0d2"/>
    <circle id="Ellipse_27" data-name="Ellipse 27" cx="2.413" cy="2.413" r="2.413" transform="translate(83.004 151.03)" fill="#98c0d2"/>
    <line id="Line_1" data-name="Line 1" y1="19" x2="25" transform="translate(50 118)" fill="none" stroke="#98c0d2" stroke-miterlimit="10" stroke-width="4"/>
    <circle id="Ellipse_28" data-name="Ellipse 28" cx="3.236" cy="3.236" r="3.236" transform="translate(69.703 40.27)" fill="none" stroke="#3f3d56" stroke-miterlimit="10" stroke-width="2"/>
    <circle id="Ellipse_29" data-name="Ellipse 29" cx="3.236" cy="3.236" r="3.236" transform="translate(88.127 77.996)" fill="#3f3d56"/>
    <circle id="Ellipse_30" data-name="Ellipse 30" cx="9.383" cy="9.383" r="9.383" transform="translate(27.515 63.255)" fill="#f2f2f2"/>
  </g>
</svg>
