<svg id="illustration" xmlns="http://www.w3.org/2000/svg" width="260.907" height="178.044" viewBox="0 0 260.907 178.044">
  <path id="Path_15" data-name="Path 15" d="M129.687,776.442c0,4.639-21.756,8.4-48.594,8.4s-48.594-3.763-48.594-8.4c0-1.16,1.358-2.264,3.815-3.268,7.153-2.927,23.622-5.007,42.98-5.127q.9-.007,1.8-.007C107.932,768.04,129.687,771.8,129.687,776.442Z" transform="translate(-30.91 -606.8)" fill="#3f3d56"/>
  <path id="Path_16" data-name="Path 16" d="M92.28,768.07A27.588,27.588,0,0,1,49.3,773.2C56.453,770.27,72.922,768.19,92.28,768.07Z" transform="translate(-43.896 -606.823)" opacity="0.1"/>
  <ellipse id="Ellipse_12" data-name="Ellipse 12" cx="25.432" cy="27.249" rx="25.432" ry="27.249" transform="translate(0 115.371)" fill="#3f3d56"/>
  <path id="Path_17" data-name="Path 17" d="M274.927,141.3c3.606,13.892,15.239,22.87,26.009,20.075" transform="translate(-218.289 -122.374)" fill="#3f3d56"/>
  <path id="Path_18" data-name="Path 18" d="M386.107,123.983c-3.646-14.048,3.128-27.939,15.147-31.059" transform="translate(-303.46 -84.985)" fill="#5596b4"/>
  <path id="Path_19" data-name="Path 19" d="M307.456,138.773c3.425,13.2,11.754,22.431,18.622,20.648" transform="translate(-243.431 -120.423)" fill="#5596b4"/>
  <path id="Path_20" data-name="Path 20" d="M384.748,96.959c-4.659-17.95,2.811-35.392,16.7-39" transform="translate(-302.101 -57.961)" fill="#3f3d56"/>
  <path id="Path_21" data-name="Path 21" d="M371.616,223.65s2.741-.8,3.42-1.612,3.913-2.4,4.366-1.507,5.38,3.652,2.267,4.487-7.375,1.4-8.338,1.105S371.616,223.65,371.616,223.65Z" transform="translate(-293.022 -183.41)" fill="#a8a8a8"/>
  <path id="Path_22" data-name="Path 22" d="M381.639,236.1c-3.113.835-7.375,1.4-8.338,1.105-.733-.221-1.344-1.539-1.595-2.156l-.091.028s.754,2.183,1.716,2.474,5.224-.27,8.338-1.105c.9-.241,1.127-.642.986-1.112C382.6,235.651,382.308,235.919,381.639,236.1Z" transform="translate(-293.022 -194.836)" opacity="0.2"/>
  <rect id="Rectangle_12" data-name="Rectangle 12" width="183.021" height="106.043" transform="translate(77.886 28.629)" fill="#f2f2f2"/>
  <rect id="Rectangle_13" data-name="Rectangle 13" width="100.366" height="52.568" transform="translate(82.201 60.817)" fill="#6c63ff" opacity="0.3"/>
  <rect id="Rectangle_14" data-name="Rectangle 14" width="40.256" height="2.227" transform="translate(190.288 58.525)" fill="#3f3d56"/>
  <rect id="Rectangle_15" data-name="Rectangle 15" width="58.585" height="2.227" transform="translate(190.288 62.636)" fill="#3f3d56"/>
  <rect id="Rectangle_16" data-name="Rectangle 16" width="40.256" height="2.227" transform="translate(190.288 72.572)" fill="#3f3d56"/>
  <rect id="Rectangle_17" data-name="Rectangle 17" width="40.256" height="2.227" transform="translate(190.288 89.017)" fill="#3f3d56"/>
  <rect id="Rectangle_18" data-name="Rectangle 18" width="58.585" height="2.227" transform="translate(190.288 76.683)" fill="#3f3d56"/>
  <rect id="Rectangle_19" data-name="Rectangle 19" width="58.585" height="2.227" transform="translate(190.288 80.794)" fill="#3f3d56"/>
  <rect id="Rectangle_20" data-name="Rectangle 20" width="58.585" height="2.227" transform="translate(190.288 84.906)" fill="#3f3d56"/>
  <rect id="Rectangle_21" data-name="Rectangle 21" width="21.07" height="5.824" transform="translate(190.288 98.952)" fill="#5596b4"/>
  <path id="Path_23" data-name="Path 23" d="M339.988,438.618s3.782-10.717,6.514-7.355-4.2,9.036-4.2,9.036Z" transform="translate(-268.576 -345.992)" fill="#a0616a"/>
  <path id="Path_24" data-name="Path 24" d="M235.581,419.605l2.275.843s1.087,4.83.666,5.671-.63.21,0,1.891,2.522,6.094,2.732,6.724,12.188-3.992,12.188-6.3c0,0,2.522,2.942,3.782,3.572,0,0-13.869,10.086-15.76,11.347s-2.942.63-4.623-.84-8.825-13.658-8.825-13.658Z" transform="translate(-182.03 -337.485)" fill="#575a89"/>
  <path id="Path_25" data-name="Path 25" d="M280.284,743.525s-.21,2.311-.63,2.522-3.572,5.463,0,6.514,5.673.63,6.514,1.051,15.55,1.261,15.76-1.051-7.144-2.732-7.144-2.732-6.724-4.413-7.775-6.724S280.284,743.525,280.284,743.525Z" transform="translate(-220.639 -586.809)" fill="#2f2e41"/>
  <path id="Path_26" data-name="Path 26" d="M86.75,766.623s-5.043,8.615-3.782,9.666,13.539,4.879,15.339,5.043c2.311.21,3.992-1.681,2.1-2.732s-5.884-5.463-5.884-6.934v-3.782Z" transform="translate(-69.762 -605.705)" fill="#2f2e41"/>
  <path id="Path_27" data-name="Path 27" d="M74.319,518.621s-4.413,5.463,2.522,14.289L88.4,547.619s-7.144,11.347-7.355,17.231-1.681,4.623-2.1,7.144-2.311,1.261-.841,3.152,6.934,3.572,8.615,2.1a5.209,5.209,0,0,0,1.681-4.2c0-.841,2.942-5.673,3.152-7.144s7.985-13.448,7.985-13.448,2.522-7.144-.42-11.137a42.21,42.21,0,0,1-4.886-9.655s8.668,10.5,14.762,13.017c0,0,2.311.42,1.891,1.471s0,1.681.63,2.732,5.043,13.238,6.514,16.39.841,5.043,2.522,6.094,9.246.21,9.246-.841a21.419,21.419,0,0,0-1.681-5.253c-.63-1.471-5.673-18.491-5.253-21.433s-.21-6.934-3.362-8.615-19.122-15.339-19.962-15.339S74.319,518.621,74.319,518.621Z" transform="translate(-62.164 -414.017)" fill="#2f2e41"/>
  <circle id="Ellipse_13" data-name="Ellipse 13" cx="8.825" cy="8.825" r="8.825" transform="translate(45.566 53.962)" fill="#a0616a"/>
  <path id="Path_28" data-name="Path 28" d="M210.83,338.171s-2.732,4.833-6.094,5.463,8.825,10.3,8.825,10.3,2.942-9.246,5.463-9.666S210.83,338.171,210.83,338.171Z" transform="translate(-163.583 -274.543)" fill="#a0616a"/>
  <path id="Path_29" data-name="Path 29" d="M120.443,372.614c0,2.732-8.2,10.506-8.2,10.506l-7.775,6.514s-.21,2.311-1.051,2.522-1.891.21-1.051,1.471,2.942,3.992,1.051,4.413a15.442,15.442,0,0,1-1.721.164c-.5.029-1.1.057-1.763.082-1.555.055-3.5.09-5.608.076q-.9,0-1.828-.021c-7.945-.158-17.149-1.072-16.4-4.083,1.261-5.043.42-6.724,3.152-9.456S86.4,372.614,86.4,372.614s8.825-14.919,16.18-14.919l1.528-.4a3.5,3.5,0,0,1,3.818,1.467c1.475,2.246,3.8,5.621,5.161,6.709,2.1,1.681,2.429.475,2.429.475S120.443,369.882,120.443,372.614Z" transform="translate(-64.581 -289.234)" fill="#575a89"/>
  <path id="Path_30" data-name="Path 30" d="M176.991,565.815s6.094,9.456,2.311,11.137-5.884-9.876-5.884-9.876Z" transform="translate(-139.83 -450.495)" fill="#a0616a"/>
  <path id="Path_31" data-name="Path 31" d="M221.222,293.068c.339-.043.446-.47.5-.807a4.535,4.535,0,0,1,3.454-3.8,4.891,4.891,0,0,1,2.058.166,7.808,7.808,0,0,1,2.64,1.3,4.355,4.355,0,0,0,1.319.828c.331.1,1.737.722,2.066.828.722.233,1.32.989,2.064.839.712-.143.982-1,1.1-1.72.261-1.633-.674-4.07-1.6-5.438a5.768,5.768,0,0,0-3.092-2.024,22.22,22.22,0,0,0-4.289-.852,13.868,13.868,0,0,0-5.877.252,5.611,5.611,0,0,0-3.945,4.036c-.073.405-.087.82-.177,1.222a18.167,18.167,0,0,1-1.246,2.735,5.267,5.267,0,0,0,.161,4.269c.524,1.054,1.435,2.066,1.239,3.227l1.622-1.279a1.178,1.178,0,0,0,.541-1.378l-.236-2.03a1.786,1.786,0,0,1,.105-1.1C220.343,291.082,220.657,293.139,221.222,293.068Z" transform="translate(-172.6 -231.277)" fill="#2f2e41"/>
  <path id="Path_32" data-name="Path 32" d="M145.467,401.113l1.979,8.231c-2,.071-4.638.109-7.436.055-.706-2.118-1.381-4.327-1.9-6.394-1.891-7.565,1.261-19.122,2.942-24.585a10.547,10.547,0,0,1,5.884-6.934,19.164,19.164,0,0,1,4.833,2.522C154.5,375.9,145.467,401.113,145.467,401.113Z" transform="translate(-112.089 -300.292)" opacity="0.1"/>
  <path id="Path_33" data-name="Path 33" d="M152.87,415.04l2.061,8.569c-.5.029-1.1.057-1.763.082-1.555.055-3.5.09-5.608.076-.759-2.251-1.492-4.625-2.045-6.836-1.891-7.565,1.261-19.122,2.942-24.585s5.358.525,5.358.525-1.471-3.572,1.261-1.681S152.87,415.04,152.87,415.04Z" transform="translate(-117.811 -314.639)" opacity="0.1"/>
  <path id="Path_34" data-name="Path 34" d="M150.639,369.634a10.547,10.547,0,0,0-5.884,6.934c-1.681,5.463-4.833,17.021-2.942,24.585a141.65,141.65,0,0,0,5.884,17.021s3.992-2.942,5.463-2.311l-3.992-16.6s9.036-25.216,6.3-27.107A19.17,19.17,0,0,0,150.639,369.634Z" transform="translate(-114.949 -298.861)" fill="#575a89"/>
  <rect id="Rectangle_22" data-name="Rectangle 22" width="100.366" height="52.568" transform="translate(77.886 55.367)" fill="#3f3d56"/>
  <ellipse id="Ellipse_14" data-name="Ellipse 14" cx="11.358" cy="11.378" rx="11.358" ry="11.378" transform="translate(118.579 71.302)" fill="#fff"/>
  <path id="Path_35" data-name="Path 35" d="M551.52,363.423A13.574,13.574,0,1,0,565.094,377,13.574,13.574,0,0,0,551.52,363.423Zm-2.786,20.811-6.957-6.956,1.951-1.951,5.012,5.012,10.578-10.578,1.951,1.951-12.536,12.523Z" transform="translate(-421.583 -294.061)" fill="#5596b4"/>
</svg>
