<svg xmlns="http://www.w3.org/2000/svg" width="1212.224" height="724.686" viewBox="0 0 1212.224 724.686">
  <g id="login_illustration" data-name="login illustration" transform="translate(0 0)">
    <path id="Path_116" data-name="Path 116" d="M837.547,769.686c-15.52-13.114-24.947-33.83-22.474-54s17.784-38.708,37.646-42.99,42.5,7.572,48.536,26.975c3.32-37.407,7.146-76.381,27.034-108.236,18.008-28.844,49.2-49.483,83-53.176s69.393,10.253,90.475,36.933,26.243,65.468,11.478,96.1c-10.877,22.565-30.916,39.358-51.912,53.02a335.036,335.036,0,0,1-229.144,50.129Z" transform="translate(90.559 -53.142)" fill="rgba(76,142,172,0.15)"/>
    <path id="Path_117" data-name="Path 117" d="M1042.655,546.227A552.823,552.823,0,0,0,880.22,765.872c-1.55,3.8,4.616,5.449,6.148,1.695a546.674,546.674,0,0,1,160.8-216.832c3.183-2.592-1.352-7.079-4.508-4.508Z" transform="translate(116.242 -50.08)" fill="#fff"/>
    <path id="Path_118" data-name="Path 118" d="M555.234,791.593c21.316-18.012,34.264-46.466,30.869-74.166S561.676,664.262,534.4,658.38s-58.378,10.4-66.664,37.05c-4.56-51.378-9.815-104.909-37.131-148.662-24.734-39.617-67.573-67.965-114-73.037s-95.311,14.083-124.267,50.728-36.045,89.92-15.766,131.992c14.939,30.993,42.463,54.058,71.3,72.823C339.87,789.14,454,814.108,562.6,798.126" transform="translate(-165 -78.611)" fill="rgba(76,142,172,0.15)"/>
    <path id="Path_119" data-name="Path 119" d="M219.736,484.671A752.9,752.9,0,0,1,324.661,588.862a763.67,763.67,0,0,1,82.746,122.463,760.563,760.563,0,0,1,35.434,75.027c2.128,5.215-6.34,7.485-8.444,2.328a747.334,747.334,0,0,0-68.287-129.2A752.036,752.036,0,0,0,274.525,546.34a750.265,750.265,0,0,0-60.982-55.476c-4.372-3.56,1.856-9.723,6.192-6.192Z" transform="translate(-146.491 -74.407)" fill="#fff"/>
    <path id="Path_120" data-name="Path 120" d="M933.077,913.085H424.5V391.272c0-111.02,90.321-201.341,201.341-201.341h105.9c111.019,0,201.341,90.321,201.341,201.341Z" transform="translate(-62.923 -189.931)" fill="rgba(85,150,180,0.08)"/>
    <path id="Path_121" data-name="Path 121" d="M827.181,913.084H424.5V391.27a199.782,199.782,0,0,1,38.451-118.358c.925-1.261,1.848-2.505,2.8-3.736A201.293,201.293,0,0,1,508.6,227.584c.919-.669,1.842-1.326,2.779-1.983a200.865,200.865,0,0,1,43.852-22.933c.921-.349,1.858-.7,2.8-1.034a200.672,200.672,0,0,1,43.345-10.222c.916-.125,1.857-.223,2.8-.321a203.833,203.833,0,0,1,43.341,0c.938.1,1.879.2,2.806.323a200.631,200.631,0,0,1,43.334,10.22c.938.335,1.875.685,2.8,1.035a200.364,200.364,0,0,1,43.342,22.595c.936.643,1.873,1.3,2.8,1.957a203.42,203.42,0,0,1,25.615,21.686,201.052,201.052,0,0,1,17.73,20.274c.948,1.227,1.871,2.471,2.794,3.73a199.782,199.782,0,0,1,38.452,118.36Z" transform="translate(-62.923 -189.929)" fill="#ccc"/>
    <circle id="Ellipse_32" data-name="Ellipse 32" cx="22.294" cy="22.294" r="22.294" transform="translate(709.221 445.179)" fill="rgba(85,150,180,0.28)"/>
    <path id="Path_122" data-name="Path 122" d="M601.716,526.384H584.633l-8.127-65.889h25.213Z" transform="translate(226.775 181.141)" fill="#ffb8b8"/>
    <path id="Path_123" data-name="Path 123" d="M579.438,504.28h32.944v20.743H558.7a20.743,20.743,0,0,1,20.743-20.743Z" transform="translate(219.769 198.364)" fill="#2f2e41"/>
    <path id="Path_124" data-name="Path 124" d="M662.716,526.384H645.633l-8.128-65.889h25.213Z" transform="translate(250.77 181.141)" fill="#ffb8b8"/>
    <path id="Path_125" data-name="Path 125" d="M640.438,504.28h32.944v20.743H619.7a20.743,20.743,0,0,1,20.743-20.743Z" transform="translate(243.764 198.364)" fill="#2f2e41"/>
    <path id="Path_126" data-name="Path 126" d="M698.827,580.016a14.968,14.968,0,0,1,6.285-22.075L763.182,397.89l28.573,15.595-66.3,152.951a15.05,15.05,0,0,1-26.625,13.582Z" transform="translate(43.971 -108.128)" fill="#ffb8b8"/>
    <path id="Path_127" data-name="Path 127" d="M820.552,604.36a14.968,14.968,0,0,1-4.031-22.6L798.533,412.458l32.518,1.486,7.476,166.536a15.05,15.05,0,0,1-17.974,23.881Z" transform="translate(84.207 -102.397)" fill="#ffb8b8"/>
    <circle id="Ellipse_33" data-name="Ellipse 33" cx="34.222" cy="34.222" r="34.222" transform="translate(818.662 191.673)" fill="#ffb8b8"/>
    <path id="Path_128" data-name="Path 128" d="M843.307,576.39H740.133l.124-.8c.167-1.084,15.026-98.419,7.983-146.277a74.927,74.927,0,0,0-3.02-13.174,16.46,16.46,0,0,1,8.457-20.32h0c19.189-9.036,56.024-20.164,87.113,6.84a39.341,39.341,0,0,1,13.18,32.6Z" transform="translate(61.235 -112.933)" fill="#98c0d2"/>
    <path id="Path_129" data-name="Path 129" d="M767.467,469.538l-46.449-9.423,21.773-51.6a19.5,19.5,0,1,1,37.768,9.75Z" transform="translate(53.716 -109.703)" fill="#98c0d2"/>
    <path id="Path_130" data-name="Path 130" d="M797.946,486.017,795.154,422c-2.118-12.033,4.771-23.409,15.365-25.268s20.945,6.493,23.072,18.615l10.5,59.814Z" transform="translate(82.727 -108.683)" fill="#98c0d2"/>
    <path id="Path_131" data-name="Path 131" d="M841.443,517.049c16.6,63.226,18.412,143.612,13.934,231.3l-22.294-2.787-40.407-167.2-22.294,169.99-25.08-1.393c-7.493-92-14.788-170.986-2.787-222.938Z" transform="translate(59.666 -61.255)" fill="#2f2e41"/>
    <path id="Path_132" data-name="Path 132" d="M811.254,392.615c-6.384,6.8-18.241,3.15-19.073-6.141a11.213,11.213,0,0,1,.014-2.168c.43-4.115,2.807-7.852,2.238-12.2a6.4,6.4,0,0,0-1.171-2.994c-5.088-6.813-17.03,3.047-21.832-3.12-2.944-3.782.517-9.736-1.743-13.962-2.982-5.578-11.814-2.827-17.353-5.882-6.162-3.4-5.794-12.854-1.737-18.605,4.947-7.014,13.621-10.756,22.187-11.3s17.073,1.776,25.07,4.893c9.086,3.541,18.1,8.435,23.688,16.424,6.8,9.716,7.454,22.779,4.054,34.14C823.528,378.619,816.468,387.062,811.254,392.615Z" transform="translate(64.179 -140.272)" fill="#2f2e41"/>
    <path id="Path_133" data-name="Path 133" d="M1295.864,710.511H267.154a1.659,1.659,0,1,1,0-3.318h1028.71a1.659,1.659,0,1,1,0,3.318Z" transform="translate(-125.469 13.54)" fill="#3f3d56"/>
    <path id="Path_134" data-name="Path 134" d="M687.694,719.62H506.557a9.009,9.009,0,0,1-9.057-8.939V306.37a9.008,9.008,0,0,1,9.057-8.939H687.694a9.009,9.009,0,0,1,9.057,8.939V710.68A9.009,9.009,0,0,1,687.694,719.62Z" transform="translate(-34.208 -147.645)" fill="#fff"/>
    <rect id="Rectangle_37" data-name="Rectangle 37" width="199.251" height="2.787" transform="translate(463.293 280.609)" fill="#ccc"/>
    <rect id="Rectangle_38" data-name="Rectangle 38" width="199.251" height="2.787" transform="translate(463.989 439.605)" fill="#ccc"/>
    <rect id="Rectangle_39" data-name="Rectangle 39" width="2.787" height="423.582" transform="translate(525.994 149.786)" fill="#ccc"/>
    <rect id="Rectangle_40" data-name="Rectangle 40" width="2.787" height="423.582" transform="translate(595.662 149.786)" fill="#ccc"/>
  </g>
</svg>
